# xmcd
#
# Track frame offsets:
# 150
# 18925
# 67432
# 92607
# 184630
# 257727
# 278612
#
# Disc length: 3915 seconds
#
#
# Revision: 2
# Processed by: cddbd v1.5.2PL0 Copyright (c) Steve Scherf et al.
# Submitted via: FreeRIP 2.944 
#
DISCID=5b0f4907
DTITLE=Dick Heckstall-Smith - You Don't Know Dick
DYEAR=2004
DGENRE=Jazz
TTITLE0=The DeLuxe Blues Band - Heatwave
TTITLE1=Dick Heckstall-Smith - Aquamarine
TTITLE2=Jon T-Bone Taylor's Bop Brothers - Try
TTITLE3=DHSS - Il cinghiale
TTITLE4=The Hamburg Blues Band - Woza Nasu
TTITLE5=The Wentus Blues Band - Looking back
TTITLE6=The Graham Bond ORGANisation - Only Sixteen
EXTD=Included as an exclusive release in Dick's book,  "Blowing The Blues - Fifty Years Playing The British Blues" - previously unreleased material.
EXTT0=
EXTT1=
EXTT2=
EXTT3=
EXTT4=
EXTT5=
EXTT6=
PLAYORDER=
